<?xml version="1.0" encoding="UTF-8" standalone="no"?>
<!-- Created with Inkscape (http://www.inkscape.org/) -->

<svg
   xmlns:dc="http://purl.org/dc/elements/1.1/"
   xmlns:cc="http://creativecommons.org/ns#"
   xmlns:rdf="http://www.w3.org/1999/02/22-rdf-syntax-ns#"
   xmlns:svg="http://www.w3.org/2000/svg"
   xmlns="http://www.w3.org/2000/svg"
   xmlns:sodipodi="http://sodipodi.sourceforge.net/DTD/sodipodi-0.dtd"
   xmlns:inkscape="http://www.inkscape.org/namespaces/inkscape"
   width="63mm"
   height="9mm"
   viewBox="0 0 63 9"
   version="1.1"
   id="svg4628"
   inkscape:version="0.92.1 r15371"
   sodipodi:docname="logoHospital.svg">
  <defs
     id="defs4622" />
  <sodipodi:namedview
     id="base"
     pagecolor="#ffffff"
     bordercolor="#666666"
     borderopacity="1.0"
     inkscape:pageopacity="0.0"
     inkscape:pageshadow="2"
     inkscape:zoom="0.98994949"
     inkscape:cx="95.862255"
     inkscape:cy="-38.587459"
     inkscape:document-units="mm"
     inkscape:current-layer="layer1"
     showgrid="false"
     inkscape:window-width="1920"
     inkscape:window-height="1018"
     inkscape:window-x="-8"
     inkscape:window-y="-8"
     inkscape:window-maximized="1" />
  <metadata
     id="metadata4625">
    <rdf:RDF>
      <cc:Work
         rdf:about="">
        <dc:format>image/svg+xml</dc:format>
        <dc:type
           rdf:resource="http://purl.org/dc/dcmitype/StillImage" />
        <dc:title></dc:title>
      </cc:Work>
    </rdf:RDF>
  </metadata>
  <g
     inkscape:label="Capa 1"
     inkscape:groupmode="layer"
     id="layer1"
     transform="translate(0,-288)">
    <g
       transform="matrix(0.26458333,0,0,0.26458333,-24.380324,174.92054)"
       id="g86">
      <g
         id="g70">
        <g
           id="g40">
          <path
             style="fill:#ffffff"
             inkscape:connector-curvature="0"
             d="m 141.617,444.655 h -2.946 l 0.043,-6.404 h -5.912 l -0.043,6.404 h -2.945 l 0.107,-14.813 h 2.944 l -0.042,6.082 h 5.912 l 0.042,-6.082 h 2.946 z"
             id="path8" />
          <path
             style="fill:#ffffff"
             inkscape:connector-curvature="0"
             d="m 152.374,444.89 c -4.588,0 -7.578,-2.562 -7.578,-7.662 0,-4.271 3.202,-7.621 7.578,-7.621 4.781,0 7.534,3.011 7.534,7.621 -10e-4,4.291 -3.308,7.662 -7.534,7.662 z m 0,-13.082 c -2.52,0 -4.397,2.024 -4.397,5.42 0,3.415 1.324,5.465 4.397,5.465 2.924,0 4.333,-2.69 4.333,-5.465 0,-3.247 -1.41,-5.42 -4.333,-5.42 z"
             id="path10" />
          <path
             style="fill:#ffffff"
             inkscape:connector-curvature="0"
             d="m 171.093,432.681 c -0.811,-0.471 -2.327,-0.788 -3.246,-0.788 -1.58,0 -2.583,0.532 -2.583,1.707 0.023,2.965 6.725,1.791 6.725,6.85 0,2.776 -2.072,4.44 -5.401,4.44 -1.665,0 -3.245,-0.362 -4.632,-1.088 l 1.089,-2.007 c 0.981,0.448 2.048,0.77 3.244,0.77 1.686,0 2.626,-0.599 2.626,-1.901 0,-2.86 -6.703,-1.705 -6.703,-6.809 0,-2.496 2.241,-4.248 5.251,-4.248 1.621,0 3.393,0.342 4.781,1.069 z"
             id="path12" />
          <path
             style="fill:#ffffff"
             inkscape:connector-curvature="0"
             d="m 179.928,438.871 h -1.708 l -0.043,5.784 h -2.945 l 0.106,-14.813 c 1.324,-0.085 3.972,-0.213 5.273,-0.213 3.031,-0.022 5.272,1.173 5.272,4.568 10e-4,3.67 -3.116,4.674 -5.955,4.674 z m 0.47,-6.978 c -0.833,0 -1.579,0.042 -2.134,0.063 l -0.043,4.654 h 1.729 c 1.814,0 2.86,-0.897 2.86,-2.351 0,-1.238 -0.705,-2.366 -2.412,-2.366 z"
             id="path14" />
          <path
             style="fill:#ffffff"
             inkscape:connector-curvature="0"
             d="m 191.561,444.655 h -2.945 l 0.106,-14.813 h 2.946 z"
             id="path16" />
          <path
             style="fill:#ffffff"
             inkscape:connector-curvature="0"
             d="m 200.974,432.127 -0.085,12.528 h -2.946 l 0.084,-12.528 h -3.863 v -2.285 h 10.673 v 2.285 z"
             id="path18" />
          <path
             style="fill:#ffffff"
             inkscape:connector-curvature="0"
             d="m 215.123,444.911 -1.452,-4.228 h -5.337 l -1.578,4.206 -2.604,-0.597 5.7,-14.451 h 2.881 l 5.292,14.407 z m -3.159,-9.157 c -0.641,-1.813 -0.876,-3.544 -0.876,-3.544 0,0 -0.342,1.855 -0.938,3.544 l -0.939,2.669 h 3.693 z"
             id="path20" />
          <path
             style="fill:#ffffff"
             inkscape:connector-curvature="0"
             d="m 220.31,444.655 0.106,-14.813 h 2.944 l -0.085,12.486 h 5.231 v 2.327 z"
             id="path22" />
          <path
             style="fill:#ffffff"
             inkscape:connector-curvature="0"
             d="m 240.263,444.655 h -2.945 l 0.109,-14.813 h 2.944 z"
             id="path24" />
          <path
             style="fill:#ffffff"
             inkscape:connector-curvature="0"
             d="m 249.677,432.127 -0.084,12.528 h -2.947 l 0.083,-12.528 h -3.86 v -2.285 h 10.673 v 2.285 z"
             id="path26" />
          <path
             style="fill:#ffffff"
             inkscape:connector-curvature="0"
             d="m 263.826,444.911 -1.451,-4.228 h -5.336 l -1.58,4.206 -2.605,-0.597 5.699,-14.451 h 2.883 l 5.292,14.407 z m -3.16,-9.157 c -0.64,-1.813 -0.873,-3.544 -0.873,-3.544 0,0 -0.343,1.855 -0.94,3.544 l -0.939,2.669 h 3.694 z"
             id="path28" />
          <path
             style="fill:#ffffff"
             inkscape:connector-curvature="0"
             d="m 269.013,444.655 0.106,-14.813 h 2.947 l -0.087,12.486 h 5.229 v 2.327 z"
             id="path30" />
          <path
             style="fill:#ffffff"
             inkscape:connector-curvature="0"
             d="m 282.991,444.655 h -2.944 l 0.106,-14.813 h 2.947 z"
             id="path32" />
          <path
             style="fill:#ffffff"
             inkscape:connector-curvature="0"
             d="m 296.01,444.911 -1.448,-4.228 h -5.337 l -1.579,4.206 -2.604,-0.597 5.698,-14.451 h 2.88 l 5.296,14.407 z m -3.157,-9.157 c -0.64,-1.813 -0.875,-3.544 -0.875,-3.544 0,0 -0.34,1.855 -0.939,3.544 l -0.939,2.669 h 3.691 z"
             id="path34" />
          <path
             style="fill:#ffffff"
             inkscape:connector-curvature="0"
             d="m 313.709,444.249 -3.375,0.791 -5.313,-9.328 c -0.896,-1.558 -1.346,-2.904 -1.346,-2.904 0,0 0.191,1.881 0.191,3.054 l -0.021,8.794 h -2.646 l 0.105,-14.322 3.394,-0.768 5.273,9.285 c 0.876,1.557 1.365,2.901 1.365,2.901 0,0 -0.17,-1.878 -0.17,-3.051 l 0.022,-8.859 h 2.646 z"
             id="path36" />
          <path
             style="fill:#ffffff"
             inkscape:connector-curvature="0"
             d="m 324.484,444.89 c -4.589,0 -7.576,-2.562 -7.576,-7.662 0,-4.271 3.202,-7.621 7.576,-7.621 4.78,0 7.535,3.011 7.535,7.621 10e-4,4.291 -3.308,7.662 -7.535,7.662 z m 0,-13.082 c -2.517,0 -4.397,2.024 -4.397,5.42 0,3.415 1.323,5.465 4.397,5.465 2.925,0 4.333,-2.69 4.333,-5.465 10e-4,-3.247 -1.408,-5.42 -4.333,-5.42 z"
             id="path38" />
        </g>
        <g
           id="g68">
          <path
             style="fill:#ffffff"
             inkscape:connector-curvature="0"
             d="m 137.269,460.391 h -1.053 c 0,-0.367 0.035,-0.998 0.052,-1.279 -0.736,0.964 -1.859,1.474 -3.07,1.474 -2.51,0 -3.386,-2.036 -3.386,-4.267 0,-2.386 1.457,-4.825 4.071,-4.825 1.035,0 1.736,0.248 2.403,0.809 -0.018,-0.351 -0.035,-0.685 -0.035,-1.036 l 0.035,-3.946 h 1.106 z m -3.352,-8.017 c -1.983,0 -2.912,2.122 -2.912,3.825 0,1.63 0.525,3.525 2.474,3.525 1.176,0 2.229,-0.844 2.72,-1.861 l 0.035,-4.438 c -0.633,-0.772 -1.353,-1.051 -2.317,-1.051 z"
             id="path42" />
          <path
             style="fill:#ffffff"
             inkscape:connector-curvature="0"
             d="m 140.7,455.831 c 0,0.138 -0.018,0.262 -0.018,0.401 0,1.809 0.509,3.439 2.632,3.439 0.913,0 1.755,-0.511 2.352,-1.175 l 0.667,0.632 c -0.842,0.91 -1.913,1.456 -3.16,1.456 -2.842,0 -3.666,-1.896 -3.666,-4.424 0,-2.261 1.421,-4.668 3.914,-4.668 2.56,0 3.243,1.967 3.243,4.02 v 0.318 H 140.7 Z m 2.722,-3.477 c -1.477,0 -2.3,1.299 -2.599,2.596 h 4.668 c 0,-1.297 -0.596,-2.596 -2.069,-2.596 z"
             id="path44" />
          <path
             style="fill:#ffffff"
             inkscape:connector-curvature="0"
             d="m 156.684,460.479 c -0.929,0 -1.878,-0.053 -2.808,-0.088 L 154,448.268 c 1.037,-0.056 2.07,-0.088 3.106,-0.088 2.123,0 3.701,0.613 3.701,2.998 0,1.476 -0.841,2.546 -2.262,2.93 1.597,0.23 2.403,1.422 2.403,2.984 0,2.458 -2.123,3.387 -4.264,3.387 z m 0,-5.861 h -1.631 l -0.036,4.913 c 0.509,0.019 1.019,0.035 1.527,0.035 1.684,0 3.21,-0.578 3.21,-2.507 0.001,-1.966 -1.315,-2.441 -3.07,-2.441 z m 0.071,-5.525 c -0.544,0 -1.105,0.015 -1.648,0.034 l -0.036,4.577 h 1.543 c 1.579,0 3.018,-0.559 3.018,-2.351 0,-1.894 -1.245,-2.26 -2.877,-2.26 z"
             id="path46" />
          <path
             style="fill:#ffffff"
             inkscape:connector-curvature="0"
             d="m 170.292,460.391 h -1.069 c -0.018,-0.735 0.017,-1.351 0.035,-1.561 -0.808,0.913 -1.859,1.755 -3.14,1.755 -1.72,0 -2.667,-0.826 -2.649,-2.564 l 0.069,-6.331 h 1.105 l -0.052,6.158 c -0.018,1.086 0.491,1.824 1.651,1.824 1.228,0 2.315,-0.967 2.982,-1.912 l 0.035,-6.07 h 1.105 z"
             id="path48" />
          <path
             style="fill:#ffffff"
             inkscape:connector-curvature="0"
             d="m 173.701,455.831 c 0,0.138 -0.018,0.262 -0.018,0.401 0,1.809 0.509,3.439 2.632,3.439 0.912,0 1.755,-0.511 2.351,-1.175 l 0.667,0.632 c -0.841,0.91 -1.912,1.456 -3.159,1.456 -2.842,0 -3.666,-1.896 -3.666,-4.424 0,-2.261 1.42,-4.668 3.913,-4.668 2.562,0 3.245,1.967 3.245,4.02 v 0.318 h -5.965 z m 2.719,-3.477 c -1.474,0 -2.298,1.299 -2.596,2.596 h 4.667 c 10e-4,-1.297 -0.596,-2.596 -2.071,-2.596 z"
             id="path50" />
          <path
             style="fill:#ffffff"
             inkscape:connector-curvature="0"
             d="m 188.533,460.391 h -1.105 l 0.053,-6.158 c 0.016,-1.087 -0.493,-1.825 -1.65,-1.825 -1.228,0 -2.298,0.966 -2.965,1.913 l -0.053,6.07 h -1.105 l 0.07,-8.701 h 1.088 c 0.018,0.735 -0.017,1.35 -0.036,1.56 0.809,-0.911 1.842,-1.756 3.123,-1.756 1.72,0 2.668,0.826 2.649,2.563 z"
             id="path52" />
          <path
             style="fill:#ffffff"
             inkscape:connector-curvature="0"
             d="m 194.644,460.585 c -2.738,0 -3.949,-2.036 -3.949,-4.563 0,-2.439 1.651,-4.529 4.194,-4.529 2.72,0 3.932,2.021 3.932,4.529 -0.001,2.386 -1.666,4.563 -4.177,4.563 z m 0.192,-8.193 c -2.035,0 -2.93,1.77 -2.93,3.596 0,1.808 0.633,3.72 2.738,3.72 0.422,0 0.843,-0.104 1.211,-0.299 1.299,-0.649 1.753,-2.054 1.753,-3.421 0.001,-1.756 -0.753,-3.596 -2.772,-3.596 z"
             id="path54" />
          <path
             style="fill:#ffffff"
             inkscape:connector-curvature="0"
             d="m 205.124,452.898 c -0.492,-0.245 -1.105,-0.524 -1.701,-0.524 -0.914,0 -1.895,0.421 -1.895,1.416 0,1.987 4.036,1.426 4.036,4.251 0,1.577 -1.422,2.544 -2.897,2.544 -0.878,0 -1.791,-0.178 -2.527,-0.668 l 0.512,-0.788 c 0.49,0.368 1.244,0.561 1.856,0.561 0.896,0 1.807,-0.491 1.807,-1.491 0,-2.195 -3.98,-1.455 -3.98,-4.337 0,-1.595 1.542,-2.368 2.964,-2.368 0.963,0 1.508,0.196 2.333,0.633 z"
             id="path56" />
          <path
             style="fill:#ffffff"
             inkscape:connector-curvature="0"
             d="m 220.723,460.549 -1.772,-4.612 h -4.966 l -1.824,4.612 -1.054,-0.333 4.93,-11.948 h 1.106 l 4.667,11.931 z m -3.736,-9.776 c -0.267,-0.7 -0.494,-1.35 -0.494,-1.35 0,0 -0.21,0.649 -0.508,1.421 l -1.651,4.159 h 4.265 z"
             id="path58" />
          <path
             style="fill:#ffffff"
             inkscape:connector-curvature="0"
             d="m 223.578,449.949 v -1.351 h 1.334 v 1.351 z m 1.105,10.442 h -1.105 l 0.07,-8.701 h 1.125 z"
             id="path60" />
          <path
             style="fill:#ffffff"
             inkscape:connector-curvature="0"
             d="m 231.631,452.69 c -0.191,-0.055 -0.419,-0.107 -0.63,-0.107 -1.053,0 -1.985,1.121 -2.439,1.947 l -0.052,5.86 h -1.105 l 0.087,-8.701 h 1.071 c 0,0.63 -0.019,1.157 -0.069,1.736 0.666,-1.052 1.351,-1.933 2.719,-1.933 0.247,0 0.563,0.071 0.805,0.143 z"
             id="path62" />
          <path
             style="fill:#ffffff"
             inkscape:connector-curvature="0"
             d="m 233.68,455.831 c 0,0.138 -0.017,0.262 -0.017,0.401 0,1.809 0.509,3.439 2.632,3.439 0.911,0 1.755,-0.511 2.351,-1.175 l 0.667,0.632 c -0.843,0.91 -1.911,1.456 -3.157,1.456 -2.845,0 -3.668,-1.896 -3.668,-4.424 0,-2.261 1.422,-4.668 3.912,-4.668 2.563,0 3.246,1.967 3.246,4.02 v 0.318 h -5.966 z m 2.721,-3.477 c -1.475,0 -2.299,1.299 -2.596,2.596 h 4.666 c 0,-1.297 -0.595,-2.596 -2.07,-2.596 z"
             id="path64" />
          <path
             style="fill:#ffffff"
             inkscape:connector-curvature="0"
             d="m 245.96,452.898 c -0.493,-0.245 -1.107,-0.524 -1.702,-0.524 -0.913,0 -1.896,0.421 -1.896,1.416 0,1.987 4.035,1.426 4.035,4.251 0,1.577 -1.422,2.544 -2.895,2.544 -0.879,0 -1.789,-0.178 -2.528,-0.668 l 0.51,-0.788 c 0.491,0.368 1.246,0.561 1.86,0.561 0.895,0 1.806,-0.491 1.806,-1.491 0,-2.195 -3.98,-1.455 -3.98,-4.337 0,-1.595 1.542,-2.368 2.964,-2.368 0.963,0 1.509,0.196 2.332,0.633 z"
             id="path66" />
        </g>
      </g>
      <g
         id="g80">
        <path
           style="fill:#ffffff"
           inkscape:connector-curvature="0"
           d="m 95.491,460.67 c -2.074,0.004 -2.063,-1.53 -2.07,-2.07 -0.009,-0.532 0,-7.881 0,-7.881 h 6.218 v 9.951 c -10e-4,0 -3.113,0 -4.148,0 z"
           id="path72" />
        <path
           style="fill:#ffffff"
           inkscape:connector-curvature="0"
           d="m 95.49,429.563 c -2.074,-0.003 -2.063,1.53 -2.07,2.071 -0.009,0.533 0,7.884 0,7.884 h 6.218 v -9.955 c 0,0 -3.112,0.003 -4.148,0 z"
           id="path74" />
        <path
           style="fill:#ffffff"
           inkscape:connector-curvature="0"
           d="m 119.962,460.67 c 2.073,0.004 2.063,-1.53 2.07,-2.07 0.009,-0.532 0,-7.881 0,-7.881 h -6.218 v 9.951 c 0,0 3.112,0 4.148,0 z"
           id="path76" />
        <path
           style="fill:#ffffff"
           inkscape:connector-curvature="0"
           d="m 119.962,429.563 c 2.073,-0.003 2.063,1.53 2.07,2.071 0.009,0.533 0,7.884 0,7.884 h -6.218 v -9.955 c 0,0 3.112,0.003 4.148,0 z"
           id="path78" />
      </g>
      <rect
         style="fill:#ffffff"
         x="104.616"
         y="429.565"
         width="6.2210002"
         height="31.106001"
         id="rect82" />
      <rect
         style="fill:#ffffff"
         x="93.416"
         y="442.00699"
         width="28.618999"
         height="6.223"
         id="rect84" />
    </g>
  </g>
</svg>
